<mxfile host="65bd71144e">
    <diagram id="kZdGCUTgBFOBkM-bZj2W" name="Page-1">
        <mxGraphModel dx="748" dy="365" grid="1" gridSize="10" guides="1" tooltips="1" connect="1" arrows="1" fold="1" page="1" pageScale="1" pageWidth="850" pageHeight="1100" math="0" shadow="0">
            <root>
                <mxCell id="0"/>
                <mxCell id="1" parent="0"/>
                <mxCell id="2" value="&lt;b style=&quot;font-size: 16px;&quot;&gt;step 0 --&amp;gt; hashof 7war el json file da el esht8l be f video 6 3a4an yb2a fe fake server ashof el denia mazbota wala la ++&amp;nbsp;&lt;br&gt;hashof el fastapi bytrbt ezay 3a4an a3ml 7esaby fel axios statment htnf3 wala la&amp;nbsp;&lt;br&gt;step 1--&amp;gt; hazabat el my profile page&amp;nbsp;&lt;br&gt;&lt;br&gt;step 2--&amp;gt; hazabat el single project page&lt;br&gt;&amp;nbsp;&lt;br&gt;step 3--&amp;gt; hazabat el add new project fel my profile&lt;br&gt;&lt;br&gt;step 4--&amp;gt;&amp;nbsp; hashof 7war el sweet alert da f ay delete aw submit form aw kda&amp;nbsp;&lt;br&gt;&lt;br&gt;step 5--&amp;gt;hazabt el styling koways bta3 kolo ba2a&amp;nbsp;&amp;nbsp;&lt;/b&gt;" style="text;strokeColor=none;align=center;fillColor=none;html=1;verticalAlign=middle;whiteSpace=wrap;rounded=0;" vertex="1" parent="1">
                    <mxGeometry x="120" y="30" width="450" height="330" as="geometry"/>
                </mxCell>
            </root>
        </mxGraphModel>
    </diagram>
</mxfile>